<svg xmlns="http://www.w3.org/2000/svg" version="1.1" xmlns:xlink="http://www.w3.org/1999/xlink" xmlns:svgjs="http://svgjs.dev/svgjs" width="1000" height="1000" viewBox="0 0 1000 1000"><rect width="1000" height="1000" fill="#ffffff"></rect><g transform="matrix(0.7,0,0,0.7,149.57575757575745,429.49429797344925)"><svg viewBox="0 0 396 80" data-background-color="#7c4e29" preserveAspectRatio="xMidYMid meet" height="202" width="1000" xmlns="http://www.w3.org/2000/svg" xmlns:xlink="http://www.w3.org/1999/xlink"><g id="tight-bounds" transform="matrix(1,0,0,1,0.24000000000006594,-0.10992813207877816)"><svg viewBox="0 0 395.51999999999987 80.21985626415757" height="80.21985626415757" width="395.51999999999987"><g><svg viewBox="0 0 556.2260106657839 112.81444838692093" height="80.21985626415757" width="395.51999999999987"><g><rect width="3.4257526525392343" height="112.81444838692093" x="148.31231913225187" y="0" fill="#000000" opacity="1" stroke-width="0" stroke="transparent" fill-opacity="1" class="rect-o-0" data-fill-palette-color="primary" rx="1%" id="o-0" data-palette-color="#ffffff"></rect></g><g transform="matrix(1,0,0,1,160.70601066578388,0.2806329561863663)"><svg viewBox="0 0 395.52000000000004 112.2531824745482" height="112.2531824745482" width="395.52000000000004"><g><svg viewBox="0 0 395.52000000000004 112.2531824745482" height="112.2531824745482" width="395.52000000000004" id="textblock"><g><svg viewBox="0 0 395.52000000000004 82.11027921406411" height="82.11027921406411" width="395.52000000000004"><g transform="matrix(1,0,0,1,0,0)"><svg width="395.52000000000004" viewBox="2.799999952316284 -36.14999771118164 386.8000183105469 77.30000305175781" height="82.11027921406411" data-palette-color="#ffffff"><svg></svg><svg></svg><g class="undefined-text-0" data-fill-palette-color="primary" id="text-0"><path xmlns="http://www.w3.org/2000/svg" d="M23.2-14.5v0l-0.05 6.5c0 0.3 0.1 0.557 0.3 0.77 0.2 0.22 0.467 0.33 0.8 0.33v0c2.033 0 3.71-0.4 5.03-1.2 1.313-0.8 1.97-2.06 1.97-3.78 0-1.713-0.683-2.903-2.05-3.57v0c-1.1-0.533-2.3-0.8-3.6-0.8v0c-0.333 0-0.667 0.017-1 0.05v0c-0.933 0.067-1.4 0.633-1.4 1.7zM23.15-28.25v0l0.05 4.1c0 0.633 0.383 0.95 1.15 0.95v0c3.367 0 5.05-0.95 5.05-2.85v0c0-2.2-1.5-3.3-4.5-3.3v0c-0.2 0-0.383 0-0.55 0v0c-0.8 0-1.2 0.367-1.2 1.1zM6.8-34.95v0c4.133-0.133 9.3-0.2 15.5-0.2 6.2 0 10.493 0.057 12.88 0.17 2.38 0.12 4.487 1.047 6.32 2.78 1.833 1.733 2.75 3.733 2.75 6v0c0 2.767-1.2 4.8-3.6 6.1v0c-0.233 0.133-0.35 0.29-0.35 0.47 0 0.187 0.117 0.313 0.35 0.38v0c1.733 0.467 3.193 1.467 4.38 3 1.18 1.533 1.77 3.35 1.77 5.45v0c0 2.633-1.017 5.017-3.05 7.15-2.033 2.133-5.15 3.29-9.35 3.47-4.2 0.187-7.233 0.28-9.1 0.28-1.867 0-8.1-0.05-18.7-0.15v0c-0.967 0-1.75-0.31-2.35-0.93-0.6-0.613-0.95-1.32-1.05-2.12v0c-0.267-2.933-0.4-7.21-0.4-12.83 0-5.613 0.117-10.403 0.35-14.37v0c0.1-1.633 0.383-2.81 0.85-3.53 0.467-0.713 1.4-1.087 2.8-1.12zM75.85 1v0c-4.033 0-7.683-0.527-10.95-1.58-3.267-1.047-5.917-2.453-7.95-4.22-2.033-1.767-3.583-3.743-4.65-5.93-1.067-2.18-1.6-4.453-1.6-6.82 0-2.367 0.543-4.643 1.63-6.83 1.08-2.18 2.63-4.153 4.65-5.92 2.013-1.767 4.653-3.183 7.92-4.25 3.267-1.067 6.85-1.6 10.75-1.6 3.9 0 7.35 0.483 10.35 1.45 3 0.967 5.417 2.283 7.25 3.95v0c3.733 3.4 5.6 7.433 5.6 12.1v0c0 2.367-0.507 4.683-1.52 6.95-1.02 2.267-2.47 4.323-4.35 6.17-1.887 1.853-4.313 3.37-7.28 4.55-2.967 1.187-6.25 1.847-9.85 1.98zM85.75-18.43c0-1.58-0.567-2.963-1.7-4.15-1.133-1.18-2.857-1.77-5.17-1.77-2.32 0-4.163 0.617-5.53 1.85-1.367 1.233-2.05 2.733-2.05 4.5 0 1.767 0.717 3.183 2.15 4.25 1.433 1.067 3.16 1.6 5.18 1.6 2.013 0 3.703-0.65 5.07-1.95 1.367-1.3 2.05-2.743 2.05-4.33zM123.25-29.75v0l-0.1 4.55v9.65c0 1.4 0.433 2.483 1.3 3.25 0.867 0.767 1.883 1.15 3.05 1.15 1.167 0 2.177-0.383 3.03-1.15 0.847-0.767 1.27-1.85 1.27-3.25v0-14.9c0-1.567 0.21-2.717 0.63-3.45 0.413-0.733 1.32-1.1 2.72-1.1v0h4.6c1.067 0 1.8 0.317 2.2 0.95v0c0.767 1.133 1.15 5.517 1.15 13.15v0c0 2.5-0.033 4.417-0.1 5.75v0c-0.1 2.7-0.723 5.107-1.87 7.22-1.153 2.12-2.63 3.813-4.43 5.08v0c-3.633 2.567-7.75 3.85-12.35 3.85v0c-6.067 0-11.083-1.417-15.05-4.25v0c-2-1.433-3.573-3.34-4.72-5.72-1.153-2.387-1.747-5.163-1.78-8.33v0c-0.033-1.567-0.05-3.877-0.05-6.93 0-3.047 0.043-5.247 0.13-6.6 0.08-1.347 0.347-2.38 0.8-3.1 0.447-0.713 1.353-1.07 2.72-1.07v0h13.35c1.333 0 2.217 0.35 2.65 1.05v0c0.567 0.9 0.85 2.3 0.85 4.2zM182-35v0h5.35c1.133 0 1.927 0.183 2.38 0.55 0.447 0.367 0.687 1.117 0.72 2.25v0c0.2 5.067 0.3 10.517 0.3 16.35 0 5.833-0.117 10.1-0.35 12.8v0c-0.067 0.767-0.357 1.467-0.87 2.1-0.52 0.633-1.197 0.95-2.03 0.95v0h-8.35c-1.167 0-2.45-0.417-3.85-1.25v0c-7.733-4.567-12.6-7.35-14.6-8.35v0c-0.4-0.167-0.723-0.11-0.97 0.17-0.253 0.287-0.38 0.813-0.38 1.58v0 5.55c0 0.633-0.233 1.133-0.7 1.5v0c-0.7 0.567-2.5 0.85-5.4 0.85v0c-0.8 0-1.583-0.027-2.35-0.08-0.767-0.047-1.39-0.387-1.87-1.02-0.487-0.633-0.747-1.317-0.78-2.05v0c-0.1-4-0.15-9.027-0.15-15.08 0-6.047 0.017-9.987 0.05-11.82 0.033-1.833 0.25-3.127 0.65-3.88 0.4-0.747 1.167-1.12 2.3-1.12v0h5.5c1.133 0 2.3 0.317 3.5 0.95v0c10.333 5.367 16.367 8.483 18.1 9.35v0c0.567 0.267 1.017 0.3 1.35 0.1 0.333-0.2 0.5-0.567 0.5-1.1v0-7c0-0.667 0.177-1.217 0.53-1.65 0.347-0.433 0.82-0.65 1.42-0.65zM224.8-3.05v0c-0.033 0.733-0.35 1.407-0.95 2.02-0.6 0.62-1.4 0.963-2.4 1.03v0c-1.9 0.133-4.183 0.2-6.85 0.2-2.667 0-5.117-0.067-7.35-0.2v0c-1-0.067-1.8-0.41-2.4-1.03-0.6-0.613-0.917-1.287-0.95-2.02v0c-0.1-5.067-0.15-9.393-0.15-12.98 0-3.58 0.017-6.203 0.05-7.87v0c0-1.267-0.567-1.9-1.7-1.9v0h-4.5c-0.7 0-1.267-0.167-1.7-0.5-0.433-0.333-0.673-0.917-0.72-1.75-0.053-0.833-0.08-1.7-0.08-2.6 0-0.9 0.027-1.677 0.08-2.33 0.047-0.647 0.313-1.147 0.8-1.5 0.48-0.347 1.003-0.52 1.57-0.52v0c4.333-0.067 10.2-0.1 17.6-0.1 7.4 0 12.7 0.033 15.9 0.1v0c0.567 0.033 1.093 0.217 1.58 0.55 0.48 0.333 0.747 0.823 0.8 1.47 0.047 0.653 0.07 1.413 0.07 2.28 0 0.867-0.017 1.7-0.05 2.5v0c-0.1 1.5-0.917 2.25-2.45 2.25v0h-4.5c-1.133 0-1.7 0.583-1.7 1.75v0c0.1 4.2 0.15 8 0.15 11.4 0 3.4-0.05 6.65-0.15 9.75zM242.15-35v0h13.4c1.4 0 2.327 0.35 2.78 1.05 0.447 0.7 0.747 2.14 0.9 4.32 0.147 2.187 0.22 6.42 0.22 12.7 0 6.287-0.133 10.897-0.4 13.83v0c-0.1 0.767-0.44 1.45-1.02 2.05-0.587 0.6-1.363 0.933-2.33 1v0c-1.9 0.133-4.1 0.2-6.6 0.2-2.5 0-4.867-0.067-7.1-0.2v0c-0.967-0.067-1.74-0.4-2.32-1-0.587-0.6-0.93-1.283-1.03-2.05v0c-0.267-2.933-0.4-7.543-0.4-13.83 0-6.28 0.077-10.513 0.23-12.7 0.147-2.18 0.447-3.62 0.9-4.32 0.447-0.7 1.37-1.05 2.77-1.05zM265.3-3.5v0l-0.05-27.15c0.267-2.767 1.45-4.217 3.55-4.35v0c1.5-0.033 11.483-0.05 29.95-0.05v0c2 0 3 1.483 3 4.45v0c0 1.5-0.883 2.25-2.65 2.25v0h-10.9c-0.7 0-1.257 0.233-1.67 0.7-0.42 0.467-0.63 1.083-0.63 1.85v0 3.55c0 1.033 0.433 1.55 1.3 1.55v0h8.3c0.8 0 1.4 0.183 1.8 0.55 0.4 0.367 0.6 1.207 0.6 2.52 0 1.32-0.19 2.163-0.57 2.53-0.387 0.367-1.013 0.55-1.88 0.55v0h-7.45c-0.833 0-1.407 0.2-1.72 0.6-0.32 0.4-0.48 1.033-0.48 1.9v0 8.6c0 1.167-0.25 2.033-0.75 2.6-0.5 0.567-1.15 0.85-1.95 0.85v0h-14.2c-0.933 0-1.733-0.31-2.4-0.93-0.667-0.613-1.067-1.47-1.2-2.57zM325.5-29.75v0l-0.1 4.55v9.65c0 1.4 0.433 2.483 1.3 3.25 0.867 0.767 1.883 1.15 3.05 1.15 1.167 0 2.177-0.383 3.03-1.15 0.847-0.767 1.27-1.85 1.27-3.25v0-14.9c0-1.567 0.21-2.717 0.63-3.45 0.413-0.733 1.32-1.1 2.72-1.1v0h4.6c1.067 0 1.8 0.317 2.2 0.95v0c0.767 1.133 1.15 5.517 1.15 13.15v0c0 2.5-0.033 4.417-0.1 5.75v0c-0.1 2.7-0.723 5.107-1.87 7.22-1.153 2.12-2.63 3.813-4.43 5.08v0c-3.633 2.567-7.75 3.85-12.35 3.85v0c-6.067 0-11.083-1.417-15.05-4.25v0c-2-1.433-3.573-3.34-4.72-5.72-1.153-2.387-1.747-5.163-1.78-8.33v0c-0.033-1.567-0.05-3.877-0.05-6.93 0-3.047 0.043-5.247 0.13-6.6 0.08-1.347 0.347-2.38 0.8-3.1 0.447-0.713 1.353-1.07 2.72-1.07v0h13.35c1.333 0 2.217 0.35 2.65 1.05v0c0.567 0.9 0.85 2.3 0.85 4.2zM371.2-22.95v0l-0.05 10c0 1.467 0.227 2.557 0.68 3.27 0.447 0.72 1.387 1.08 2.82 1.08v0h12.65c1.533 0.033 2.3 1.2 2.3 3.5v0c0 1.767-0.217 3.05-0.65 3.85-0.433 0.8-1.317 1.217-2.65 1.25v0c-4.7 0.133-9.35 0.2-13.95 0.2-4.6 0-10.467-0.033-17.6-0.1v0c-1.2 0-2.173-0.293-2.92-0.88-0.753-0.58-1.18-1.387-1.28-2.42v0c-0.267-2.9-0.4-7.477-0.4-13.73 0-6.247 0.077-10.463 0.23-12.65 0.147-2.18 0.453-3.63 0.92-4.35 0.467-0.713 1.383-1.07 2.75-1.07v0h13.4c1.4 0 2.327 0.367 2.78 1.1 0.447 0.733 0.72 1.917 0.82 3.55 0.1 1.633 0.15 4.1 0.15 7.4z" fill="#000000" fill-rule="nonzero" stroke="none" stroke-width="1" stroke-linecap="butt" stroke-linejoin="miter" stroke-miterlimit="10" stroke-dasharray="" stroke-dashoffset="0" font-family="none" font-weight="none" font-size="none" text-anchor="none" style="mix-blend-mode: normal" data-fill-palette-color="primary" opacity="1"></path><path xmlns="http://www.w3.org/2000/svg" d="M2.85 36.65v0l-0.05-27.15c0.267-2.767 1.45-4.217 3.55-4.35v0c1.5-0.033 11.483-0.05 29.95-0.05v0c2 0 3 1.483 3 4.45v0c0 1.5-0.883 2.25-2.65 2.25v0h-10.9c-0.7 0-1.257 0.233-1.67 0.7-0.42 0.467-0.63 1.083-0.63 1.85v0 3.55c0 1.033 0.433 1.55 1.3 1.55v0h8.3c0.8 0 1.4 0.183 1.8 0.55 0.4 0.367 0.6 1.207 0.6 2.52 0 1.32-0.19 2.163-0.57 2.53-0.387 0.367-1.013 0.55-1.88 0.55v0h-7.45c-0.833 0-1.407 0.2-1.72 0.6-0.32 0.4-0.48 1.033-0.48 1.9v0 8.6c0 1.167-0.25 2.033-0.75 2.6-0.5 0.567-1.15 0.85-1.95 0.85v0h-14.2c-0.933 0-1.733-0.31-2.4-0.93-0.667-0.613-1.067-1.47-1.2-2.57zM67.8 41.15v0c-4.033 0-7.683-0.527-10.95-1.58-3.267-1.047-5.917-2.453-7.95-4.22-2.033-1.767-3.583-3.743-4.65-5.93-1.067-2.18-1.6-4.453-1.6-6.82 0-2.367 0.543-4.643 1.63-6.83 1.08-2.18 2.63-4.153 4.65-5.92 2.013-1.767 4.653-3.183 7.92-4.25 3.267-1.067 6.85-1.6 10.75-1.6 3.9 0 7.35 0.483 10.35 1.45 3 0.967 5.417 2.283 7.25 3.95v0c3.733 3.4 5.6 7.433 5.6 12.1v0c0 2.367-0.507 4.683-1.52 6.95-1.02 2.267-2.47 4.323-4.35 6.17-1.887 1.853-4.313 3.37-7.28 4.55-2.967 1.187-6.25 1.847-9.85 1.98zM77.7 21.72c0-1.58-0.567-2.963-1.7-4.15-1.133-1.18-2.857-1.77-5.17-1.77-2.32 0-4.163 0.617-5.53 1.85-1.367 1.233-2.05 2.733-2.05 4.5 0 1.767 0.717 3.183 2.15 4.25 1.433 1.067 3.16 1.6 5.18 1.6 2.013 0 3.703-0.65 5.07-1.95 1.367-1.3 2.05-2.743 2.05-4.33zM119.95 41.15v0c-4.033 0-7.683-0.527-10.95-1.58-3.267-1.047-5.917-2.453-7.95-4.22-2.033-1.767-3.583-3.743-4.65-5.93-1.067-2.18-1.6-4.453-1.6-6.82 0-2.367 0.543-4.643 1.63-6.83 1.08-2.18 2.63-4.153 4.65-5.92 2.013-1.767 4.653-3.183 7.92-4.25 3.267-1.067 6.85-1.6 10.75-1.6 3.9 0 7.35 0.483 10.35 1.45 3 0.967 5.417 2.283 7.25 3.95v0c3.733 3.4 5.6 7.433 5.6 12.1v0c0 2.367-0.507 4.683-1.52 6.95-1.02 2.267-2.47 4.323-4.35 6.17-1.887 1.853-4.313 3.37-7.28 4.55-2.967 1.187-6.25 1.847-9.85 1.98zM129.85 21.72c0-1.58-0.567-2.963-1.7-4.15-1.133-1.18-2.857-1.77-5.17-1.77-2.32 0-4.163 0.617-5.53 1.85-1.367 1.233-2.05 2.733-2.05 4.5 0 1.767 0.717 3.183 2.15 4.25 1.433 1.067 3.16 1.6 5.18 1.6 2.013 0 3.703-0.65 5.07-1.95 1.367-1.3 2.05-2.743 2.05-4.33zM170.95 40.05v0c-2.233 0.2-5.433 0.3-9.6 0.3-4.167 0-7.007-0.057-8.52-0.17-1.52-0.12-2.663-0.397-3.43-0.83-0.767-0.433-1.183-1.117-1.25-2.05v0c-0.2-3.6-0.3-7.71-0.3-12.33 0-4.613 0.067-9.503 0.2-14.67v0c0.067-3.2 1.55-4.9 4.45-5.1v0c2.033-0.133 5.15-0.2 9.35-0.2 4.2 0 7.493 0.057 9.88 0.17 2.38 0.12 4.68 0.67 6.9 1.65 2.213 0.987 3.987 2.263 5.32 3.83v0c2.767 3.233 4.15 6.983 4.15 11.25v0c0 4.5-1.45 8.517-4.35 12.05v0c-1.4 1.7-3.207 3.1-5.42 4.2-2.22 1.1-4.68 1.733-7.38 1.9zM168.7 15.95v0 12.1c0 0.267 0.1 0.517 0.3 0.75 0.2 0.233 0.467 0.35 0.8 0.35v0c2.133 0 3.777-0.733 4.93-2.2 1.147-1.467 1.72-3.2 1.72-5.2 0-2-0.523-3.743-1.57-5.23-1.053-1.48-2.463-2.22-4.23-2.22v0c-0.433 0-0.767 0.017-1 0.05v0c-0.633 0.167-0.95 0.7-0.95 1.6zM208.4 41.15c-2.867 0-5.54-0.317-8.02-0.95-2.487-0.633-4.237-1.267-5.25-1.9-1.02-0.633-1.697-1.083-2.03-1.35v0c-0.867-0.7-1.3-1.667-1.3-2.9v0c0-0.967 0.117-1.883 0.35-2.75v0c0.433-1.633 1.217-2.45 2.35-2.45v0c0.367 0.033 1.543 0.417 3.53 1.15 1.98 0.733 3.537 1.1 4.67 1.1v0c1.7 0 2.55-0.667 2.55-2v0c0-0.8-0.417-1.543-1.25-2.23-0.833-0.68-1.84-1.337-3.02-1.97-1.187-0.633-2.38-1.36-3.58-2.18-1.2-0.813-2.217-1.947-3.05-3.4-0.833-1.447-1.25-3.137-1.25-5.07v0c0-3.2 1.567-5.71 4.7-7.53 3.133-1.813 7.183-2.72 12.15-2.72 4.967 0 8.91 0.507 11.83 1.52 2.913 1.02 4.37 2.43 4.37 4.23v0c0 1.3-0.3 2.44-0.9 3.42-0.6 0.987-1.233 1.48-1.9 1.48v0c-0.233 0-1.007-0.26-2.32-0.78-1.32-0.513-2.513-0.77-3.58-0.77v0c-2.1 0-3.15 0.817-3.15 2.45v0c0 0.8 0.5 1.533 1.5 2.2 1 0.667 2.21 1.307 3.63 1.92 1.413 0.62 2.837 1.313 4.27 2.08 1.433 0.767 2.65 1.817 3.65 3.15 1 1.333 1.5 2.95 1.5 4.85 0 1.9-0.607 3.633-1.82 5.2-1.22 1.567-2.83 2.783-4.83 3.65v0c-3.967 1.7-8.567 2.55-13.8 2.55z" fill="#000000" fill-rule="nonzero" stroke="none" stroke-width="1" stroke-linecap="butt" stroke-linejoin="miter" stroke-miterlimit="10" stroke-dasharray="" stroke-dashoffset="0" font-family="none" font-weight="none" font-size="none" text-anchor="none" style="mix-blend-mode: normal" data-fill-palette-color="primary" opacity="1"></path></g></svg></g></svg></g><g transform="matrix(1,0,0,1,0,91.07821809505687)"><svg viewBox="0 0 232.20979200000002 21.17496437949132" height="21.17496437949132" width="232.20979200000002"><g transform="matrix(1,0,0,1,0,0)"><svg width="232.20979200000002" viewBox="5.25 -36.380001068115234 495.3500061035156 45.18000030517578" height="21.17496437949132" data-palette-color="#ffffff"><path d="M5.25-35.38L26.45-35.38 26.45-33.25 7.83-33.25 7.83-18.38 23.95-18.38 23.95-16.25 7.83-16.25 7.83 0 5.25 0 5.25-35.38ZM33.52 0L31.15 0 31.15-24.88 32.4-24.88Q32.82-24.88 33.01-24.7 33.2-24.53 33.22-24.1L33.22-24.1 33.42-18.85Q34.62-21.88 36.62-23.59 38.62-25.3 41.55-25.3L41.55-25.3Q42.67-25.3 43.62-25.06 44.57-24.83 45.42-24.38L45.42-24.38 45.1-22.73Q45.02-22.33 44.6-22.33L44.6-22.33Q44.45-22.33 44.17-22.43 43.9-22.53 43.48-22.65 43.07-22.78 42.47-22.88 41.87-22.98 41.1-22.98L41.1-22.98Q38.27-22.98 36.46-21.23 34.65-19.48 33.52-16.18L33.52-16.18 33.52 0ZM60.37-25.28L60.37-25.28Q62.47-25.28 64.26-24.55 66.05-23.83 67.36-22.44 68.67-21.05 69.41-19.03 70.15-17 70.15-14.38L70.15-14.38Q70.15-13.83 69.98-13.63 69.82-13.43 69.47-13.43L69.47-13.43 51.5-13.43 51.5-12.95Q51.5-10.15 52.15-8.03 52.8-5.9 54-4.46 55.2-3.03 56.9-2.3 58.6-1.58 60.7-1.58L60.7-1.58Q62.57-1.58 63.95-1.99 65.32-2.4 66.26-2.91 67.2-3.43 67.75-3.84 68.3-4.25 68.55-4.25L68.55-4.25Q68.87-4.25 69.05-4L69.05-4 69.7-3.2Q69.1-2.45 68.11-1.8 67.12-1.15 65.91-0.69 64.7-0.23 63.31 0.05 61.92 0.33 60.52 0.33L60.52 0.33Q57.97 0.33 55.87-0.56 53.77-1.45 52.27-3.15 50.77-4.85 49.96-7.31 49.15-9.78 49.15-12.95L49.15-12.95Q49.15-15.63 49.91-17.89 50.67-20.15 52.11-21.79 53.55-23.43 55.63-24.35 57.72-25.28 60.37-25.28ZM60.4-23.5L60.4-23.5Q58.47-23.5 56.95-22.9 55.42-22.3 54.31-21.18 53.2-20.05 52.51-18.48 51.82-16.9 51.6-14.95L51.6-14.95 68-14.95Q68-16.95 67.45-18.54 66.9-20.13 65.9-21.23 64.9-22.33 63.5-22.91 62.1-23.5 60.4-23.5ZM90.77-22.63L90.24-21.8Q90.07-21.45 89.69-21.45L89.69-21.45Q89.42-21.45 88.98-21.76 88.54-22.08 87.83-22.46 87.12-22.85 86.08-23.16 85.04-23.48 83.54-23.48L83.54-23.48Q82.19-23.48 81.08-23.09 79.97-22.7 79.18-22.05 78.39-21.4 77.96-20.54 77.52-19.68 77.52-18.73L77.52-18.73Q77.52-17.55 78.12-16.78 78.72-16 79.69-15.45 80.67-14.9 81.91-14.5 83.14-14.1 84.44-13.7 85.74-13.3 86.98-12.81 88.22-12.33 89.19-11.6 90.17-10.88 90.77-9.83 91.37-8.78 91.37-7.28L91.37-7.28Q91.37-5.65 90.78-4.25 90.19-2.85 89.08-1.83 87.97-0.8 86.34-0.2 84.72 0.4 82.64 0.4L82.64 0.4Q80.02 0.4 78.12-0.44 76.22-1.28 74.72-2.63L74.72-2.63 75.29-3.48Q75.42-3.68 75.57-3.78 75.72-3.88 75.99-3.88L75.99-3.88Q76.32-3.88 76.79-3.48 77.27-3.08 78.03-2.61 78.79-2.15 79.93-1.75 81.07-1.35 82.74-1.35L82.74-1.35Q84.32-1.35 85.52-1.79 86.72-2.23 87.52-2.98 88.32-3.73 88.73-4.74 89.14-5.75 89.14-6.88L89.14-6.88Q89.14-8.13 88.54-8.95 87.94-9.78 86.97-10.35 85.99-10.93 84.76-11.33 83.52-11.73 82.21-12.13 80.89-12.53 79.66-13 78.42-13.48 77.44-14.2 76.47-14.93 75.87-15.96 75.27-17 75.27-18.55L75.27-18.55Q75.27-19.88 75.84-21.1 76.42-22.33 77.48-23.25 78.54-24.18 80.07-24.73 81.59-25.28 83.49-25.28L83.49-25.28Q85.77-25.28 87.53-24.63 89.29-23.98 90.77-22.63L90.77-22.63ZM100.42 0L98.04 0 98.04-36.38 100.42-36.38 100.42-20.63Q102.14-22.75 104.35-24.01 106.57-25.28 109.32-25.28L109.32-25.28Q111.37-25.28 112.93-24.63 114.49-23.98 115.52-22.75 116.54-21.53 117.07-19.8 117.59-18.07 117.59-15.9L117.59-15.9 117.59 0 115.22 0 115.22-15.9Q115.22-19.4 113.62-21.39 112.02-23.38 108.72-23.38L108.72-23.38Q106.27-23.38 104.17-22.11 102.07-20.85 100.42-18.65L100.42-18.65 100.42 0ZM151.56 0L150.61 0Q149.86 0 149.69-0.7L149.69-0.7 149.34-3.88Q148.31-2.88 147.3-2.08 146.28-1.28 145.19-0.73 144.09-0.18 142.81 0.11 141.53 0.4 140.01 0.4L140.01 0.4Q138.74 0.4 137.53 0.03 136.34-0.35 135.41-1.13 134.49-1.9 133.92-3.11 133.36-4.33 133.36-6.03L133.36-6.03Q133.36-7.6 134.26-8.95 135.16-10.3 137.07-11.3 138.99-12.3 142-12.9 145.01-13.5 149.24-13.6L149.24-13.6 149.24-16.2Q149.24-19.65 147.75-21.51 146.26-23.38 143.34-23.38L143.34-23.38Q141.53-23.38 140.27-22.88 139.01-22.38 138.13-21.78 137.26-21.18 136.71-20.68 136.16-20.18 135.78-20.18L135.78-20.18Q135.28-20.18 135.03-20.63L135.03-20.63 134.61-21.35Q136.56-23.3 138.71-24.3 140.86-25.3 143.59-25.3L143.59-25.3Q145.59-25.3 147.09-24.66 148.59-24.03 149.57-22.84 150.56-21.65 151.06-19.96 151.56-18.28 151.56-16.2L151.56-16.2 151.56 0ZM140.61-1.33L140.61-1.33Q142.06-1.33 143.27-1.64 144.49-1.95 145.52-2.51 146.56-3.08 147.46-3.85 148.36-4.63 149.24-5.53L149.24-5.53 149.24-12Q145.69-11.9 143.12-11.46 140.56-11.03 138.9-10.28 137.24-9.53 136.45-8.49 135.66-7.45 135.66-6.13L135.66-6.13Q135.66-4.88 136.07-3.96 136.49-3.05 137.16-2.46 137.84-1.88 138.74-1.6 139.63-1.33 140.61-1.33ZM161.43 0L159.06 0 159.06-24.88 160.36-24.88Q161.01-24.88 161.11-24.25L161.11-24.25 161.33-20.5Q163.03-22.65 165.29-23.96 167.56-25.28 170.33-25.28L170.33-25.28Q172.38-25.28 173.94-24.63 175.51-23.98 176.53-22.75 177.56-21.53 178.08-19.8 178.61-18.07 178.61-15.9L178.61-15.9 178.61 0 176.23 0 176.23-15.9Q176.23-19.4 174.63-21.39 173.03-23.38 169.73-23.38L169.73-23.38Q167.28-23.38 165.18-22.11 163.08-20.85 161.43-18.65L161.43-18.65 161.43 0ZM205.06 0L203.73 0Q203.11 0 203-0.65L203-0.65 202.75-4.58Q201.11-2.33 198.89-1 196.68 0.33 193.93 0.33L193.93 0.33Q189.36 0.33 186.79-2.85 184.23-6.03 184.23-12.38L184.23-12.38Q184.23-15.1 184.94-17.46 185.66-19.83 187.04-21.56 188.43-23.3 190.44-24.3 192.46-25.3 195.08-25.3L195.08-25.3Q197.61-25.3 199.46-24.36 201.31-23.43 202.66-21.63L202.66-21.63 202.66-36.38 205.06-36.38 205.06 0ZM194.61-1.6L194.61-1.6Q197.08-1.6 199.08-2.88 201.08-4.15 202.66-6.43L202.66-6.43 202.66-19.55Q201.21-21.68 199.47-22.55 197.73-23.43 195.53-23.43L195.53-23.43Q193.33-23.43 191.68-22.63 190.03-21.83 188.92-20.36 187.81-18.9 187.24-16.86 186.68-14.83 186.68-12.38L186.68-12.38Q186.68-6.83 188.73-4.21 190.78-1.6 194.61-1.6ZM251.55-35.38L251.55 0 248.98 0 248.98-16.95 226.83-16.95 226.83 0 224.25 0 224.25-35.38 226.83-35.38 226.83-18.88 248.98-18.88 248.98-35.38 251.55-35.38ZM270.22-25.28L270.22-25.28Q272.32-25.28 274.11-24.55 275.9-23.83 277.21-22.44 278.52-21.05 279.26-19.03 280-17 280-14.38L280-14.38Q280-13.83 279.84-13.63 279.67-13.43 279.32-13.43L279.32-13.43 261.35-13.43 261.35-12.95Q261.35-10.15 262-8.03 262.65-5.9 263.85-4.46 265.05-3.03 266.75-2.3 268.45-1.58 270.55-1.58L270.55-1.58Q272.42-1.58 273.8-1.99 275.17-2.4 276.11-2.91 277.05-3.43 277.6-3.84 278.15-4.25 278.4-4.25L278.4-4.25Q278.72-4.25 278.9-4L278.9-4 279.55-3.2Q278.95-2.45 277.96-1.8 276.97-1.15 275.76-0.69 274.55-0.23 273.16 0.05 271.77 0.33 270.37 0.33L270.37 0.33Q267.82 0.33 265.72-0.56 263.62-1.45 262.12-3.15 260.62-4.85 259.81-7.31 259-9.78 259-12.95L259-12.95Q259-15.63 259.76-17.89 260.52-20.15 261.96-21.79 263.4-23.43 265.49-24.35 267.57-25.28 270.22-25.28ZM270.25-23.5L270.25-23.5Q268.32-23.5 266.8-22.9 265.27-22.3 264.16-21.18 263.05-20.05 262.36-18.48 261.67-16.9 261.45-14.95L261.45-14.95 277.85-14.95Q277.85-16.95 277.3-18.54 276.75-20.13 275.75-21.23 274.75-22.33 273.35-22.91 271.95-23.5 270.25-23.5ZM303.22 0L302.27 0Q301.52 0 301.35-0.7L301.35-0.7 301-3.88Q299.97-2.88 298.96-2.08 297.95-1.28 296.85-0.73 295.75-0.18 294.47 0.11 293.2 0.4 291.67 0.4L291.67 0.4Q290.4 0.4 289.2 0.03 288-0.35 287.07-1.13 286.15-1.9 285.58-3.11 285.02-4.33 285.02-6.03L285.02-6.03Q285.02-7.6 285.92-8.95 286.82-10.3 288.73-11.3 290.65-12.3 293.66-12.9 296.67-13.5 300.9-13.6L300.9-13.6 300.9-16.2Q300.9-19.65 299.41-21.51 297.92-23.38 295-23.38L295-23.38Q293.2-23.38 291.93-22.88 290.67-22.38 289.8-21.78 288.92-21.18 288.37-20.68 287.82-20.18 287.45-20.18L287.45-20.18Q286.95-20.18 286.7-20.63L286.7-20.63 286.27-21.35Q288.22-23.3 290.37-24.3 292.52-25.3 295.25-25.3L295.25-25.3Q297.25-25.3 298.75-24.66 300.25-24.03 301.23-22.84 302.22-21.65 302.72-19.96 303.22-18.28 303.22-16.2L303.22-16.2 303.22 0ZM292.27-1.33L292.27-1.33Q293.72-1.33 294.93-1.64 296.15-1.95 297.18-2.51 298.22-3.08 299.12-3.85 300.02-4.63 300.9-5.53L300.9-5.53 300.9-12Q297.35-11.9 294.78-11.46 292.22-11.03 290.56-10.28 288.9-9.53 288.11-8.49 287.32-7.45 287.32-6.13L287.32-6.13Q287.32-4.88 287.73-3.96 288.15-3.05 288.82-2.46 289.5-1.88 290.4-1.6 291.3-1.33 292.27-1.33ZM311.42-36.38L313.79-36.38 313.79 0 311.42 0 311.42-36.38ZM329.39 0.4L329.39 0.4Q326.87 0.4 325.45-1 324.04-2.4 324.04-5.33L324.04-5.33 324.04-22.33 320.47-22.33Q320.19-22.33 320.02-22.48 319.84-22.63 319.84-22.9L319.84-22.9 319.84-23.83 324.09-24.13 324.69-33.02Q324.72-33.25 324.88-33.43 325.04-33.6 325.31-33.6L325.31-33.6 326.44-33.6 326.44-24.1 334.27-24.1 334.27-22.33 326.44-22.33 326.44-5.45Q326.44-4.42 326.7-3.69 326.97-2.95 327.43-2.48 327.89-2 328.52-1.78 329.14-1.55 329.87-1.55L329.87-1.55Q330.77-1.55 331.42-1.81 332.06-2.08 332.54-2.39 333.02-2.7 333.31-2.96 333.62-3.23 333.79-3.23L333.79-3.23Q333.99-3.23 334.19-2.98L334.19-2.98 334.84-1.93Q333.89-0.88 332.43-0.24 330.97 0.4 329.39 0.4ZM342.79 0L340.41 0 340.41-36.38 342.79-36.38 342.79-20.63Q344.51-22.75 346.73-24.01 348.94-25.28 351.69-25.28L351.69-25.28Q353.74-25.28 355.3-24.63 356.86-23.98 357.89-22.75 358.91-21.53 359.44-19.8 359.96-18.07 359.96-15.9L359.96-15.9 359.96 0 357.59 0 357.59-15.9Q357.59-19.4 355.99-21.39 354.39-23.38 351.09-23.38L351.09-23.38Q348.64-23.38 346.54-22.11 344.44-20.85 342.79-18.65L342.79-18.65 342.79 0ZM386.56-24.88L372.26 8Q372.11 8.35 371.87 8.58 371.64 8.8 371.19 8.8L371.19 8.8 369.49 8.8 373.86-0.93 363.34-24.88 365.31-24.88Q365.69-24.88 365.9-24.69 366.11-24.5 366.21-24.28L366.21-24.28 374.59-4.93Q374.74-4.55 374.85-4.16 374.96-3.78 375.06-3.38L375.06-3.38Q375.19-3.78 375.32-4.16 375.46-4.55 375.61-4.93L375.61-4.93 383.89-24.28Q384.01-24.55 384.24-24.71 384.46-24.88 384.74-24.88L384.74-24.88 386.56-24.88ZM402.03-35.38L423.23-35.38 423.23-33.25 404.61-33.25 404.61-18.38 420.73-18.38 420.73-16.25 404.61-16.25 404.61 0 402.03 0 402.03-35.38ZM437.03-25.28L437.03-25.28Q439.7-25.28 441.82-24.36 443.93-23.45 445.38-21.78 446.83-20.1 447.59-17.74 448.35-15.38 448.35-12.45L448.35-12.45Q448.35-9.53 447.59-7.18 446.83-4.83 445.38-3.15 443.93-1.48 441.82-0.58 439.7 0.33 437.03 0.33L437.03 0.33Q434.35 0.33 432.24-0.58 430.13-1.48 428.67-3.15 427.2-4.83 426.44-7.18 425.68-9.53 425.68-12.45L425.68-12.45Q425.68-15.38 426.44-17.74 427.2-20.1 428.67-21.78 430.13-23.45 432.24-24.36 434.35-25.28 437.03-25.28ZM437.03-1.55L437.03-1.55Q439.25-1.55 440.92-2.31 442.58-3.08 443.69-4.5 444.8-5.93 445.35-7.94 445.9-9.95 445.9-12.45L445.9-12.45Q445.9-14.93 445.35-16.95 444.8-18.98 443.69-20.41 442.58-21.85 440.92-22.63 439.25-23.4 437.03-23.4L437.03-23.4Q434.8-23.4 433.14-22.63 431.48-21.85 430.37-20.41 429.25-18.98 428.69-16.95 428.13-14.93 428.13-12.45L428.13-12.45Q428.13-9.95 428.69-7.94 429.25-5.93 430.37-4.5 431.48-3.08 433.14-2.31 434.8-1.55 437.03-1.55ZM464.08-25.28L464.08-25.28Q466.75-25.28 468.86-24.36 470.98-23.45 472.43-21.78 473.88-20.1 474.64-17.74 475.4-15.38 475.4-12.45L475.4-12.45Q475.4-9.53 474.64-7.18 473.88-4.83 472.43-3.15 470.98-1.48 468.86-0.58 466.75 0.33 464.08 0.33L464.08 0.33Q461.4 0.33 459.29-0.58 457.18-1.48 455.71-3.15 454.25-4.83 453.49-7.18 452.73-9.53 452.73-12.45L452.73-12.45Q452.73-15.38 453.49-17.74 454.25-20.1 455.71-21.78 457.18-23.45 459.29-24.36 461.4-25.28 464.08-25.28ZM464.08-1.55L464.08-1.55Q466.3-1.55 467.96-2.31 469.63-3.08 470.74-4.5 471.85-5.93 472.4-7.94 472.95-9.95 472.95-12.45L472.95-12.45Q472.95-14.93 472.4-16.95 471.85-18.98 470.74-20.41 469.63-21.85 467.96-22.63 466.3-23.4 464.08-23.4L464.08-23.4Q461.85-23.4 460.19-22.63 458.53-21.85 457.41-20.41 456.3-18.98 455.74-16.95 455.18-14.93 455.18-12.45L455.18-12.45Q455.18-9.95 455.74-7.94 456.3-5.93 457.41-4.5 458.53-3.08 460.19-2.31 461.85-1.55 464.08-1.55ZM500.6 0L499.27 0Q498.65 0 498.55-0.65L498.55-0.65 498.3-4.58Q496.65-2.33 494.44-1 492.22 0.33 489.47 0.33L489.47 0.33Q484.9 0.33 482.34-2.85 479.77-6.03 479.77-12.38L479.77-12.38Q479.77-15.1 480.49-17.46 481.2-19.83 482.59-21.56 483.97-23.3 485.99-24.3 488-25.3 490.62-25.3L490.62-25.3Q493.15-25.3 495-24.36 496.85-23.43 498.2-21.63L498.2-21.63 498.2-36.38 500.6-36.38 500.6 0ZM490.15-1.6L490.15-1.6Q492.62-1.6 494.62-2.88 496.62-4.15 498.2-6.43L498.2-6.43 498.2-19.55Q496.75-21.68 495.01-22.55 493.27-23.43 491.07-23.43L491.07-23.43Q488.87-23.43 487.22-22.63 485.57-21.83 484.46-20.36 483.35-18.9 482.79-16.86 482.22-14.83 482.22-12.38L482.22-12.38Q482.22-6.83 484.27-4.21 486.32-1.6 490.15-1.6Z" opacity="1" transform="matrix(1,0,0,1,0,0)" fill="#000000" class="undefined-text-1" data-fill-palette-color="secondary" id="text-1"></path></svg></g></svg></g></svg></g></svg></g><g transform="matrix(1,0,0,1,0,0.2806329561863663)"><svg viewBox="0 0 139.3443802512591 112.2531824745482" height="112.2531824745482" width="139.3443802512591"><g><svg xmlns="http://www.w3.org/2000/svg" xmlns:xlink="http://www.w3.org/1999/xlink" version="1.1" x="0" y="0" viewBox="0.0005362555384635925 4.66654634475708 47.99946212768555 38.66745376586914" enable-background="new 0 0 48 48" xml:space="preserve" height="112.2531824745482" width="139.3443802512591" class="icon-icon-0" data-fill-palette-color="accent" id="icon-0"><g fill="#ffffff" data-fill-palette-color="accent"><path d="M44.368 15.474c0 0-2.296-2.345-4.973-2.064-2.219 0.231-1.656 0.566-3.07 0.674 0.269-5.517-3.406-8.999-3.573-9.154-0.399-0.371-1.022-0.347-1.393 0.052-0.369 0.399-0.346 1.022 0.053 1.392 0.034 0.032 3.208 3.041 2.938 7.72-1.604-0.095-0.921-0.444-3.214-0.684-2.678-0.281-4.974 2.064-4.974 2.064-5.418 6.406 2.044 14.8 4.396 16.423 2.079 1.438 4.237 0.334 4.707 0.06 0.472 0.274 2.628 1.378 4.708-0.06C42.324 30.273 49.785 21.88 44.368 15.474z" fill="#000000" data-fill-palette-color="accent"></path><path d="M37.708 9.721c0 0-0.347-5.376 8.592-3.943C46.3 5.778 44.166 12.708 37.708 9.721z" fill="#000000" data-fill-palette-color="accent"></path><circle cx="17.166" cy="18.841" r="3.6" fill="#000000" data-fill-palette-color="accent"></circle><g fill="#ffffff" data-fill-palette-color="accent"><circle cx="7.923" cy="26.334" r="3.6" fill="#000000" data-fill-palette-color="accent"></circle><circle cx="18.2" cy="29.889" r="3.6" fill="#000000" data-fill-palette-color="accent"></circle><path d="M44.544 28.359c-1.374 2.032-2.965 3.625-4.012 4.348-0.861 0.595-1.82 0.897-2.852 0.897-1.005 0-1.862-0.291-2.415-0.542-0.554 0.252-1.409 0.542-2.416 0.542-1.031 0-1.99-0.303-2.853-0.898-1.771-1.223-5.101-4.924-6.299-9.061-4.18 0.049-8.084 0.55-11.45 1.388 0.207 0.683 0.275 1.418 0.131 2.167-0.415 2.129-2.287 3.673-4.452 3.673-0.29 0-0.583-0.028-0.869-0.084-1.19-0.229-2.219-0.911-2.896-1.915-0.079-0.117-0.132-0.246-0.199-0.368-2.063 1.461-3.248 3.162-3.248 4.98 0 5.439 10.585 9.848 23.643 9.848C37.415 43.334 48 38.926 48 33.486 48 31.607 46.736 29.853 44.544 28.359zM22.655 30.754c-0.415 2.129-2.288 3.674-4.452 3.674-0.291 0-0.582-0.028-0.869-0.084-2.457-0.478-4.067-2.863-3.591-5.319 0.411-2.13 2.283-3.676 4.45-3.676 0.291 0 0.584 0.029 0.871 0.085 1.189 0.229 2.219 0.911 2.897 1.915C22.64 28.354 22.886 29.563 22.655 30.754z" fill="#000000" data-fill-palette-color="accent"></path></g><path d="M10.515 14.529c0.107 0.103 4.377-1.699 3.695-4.369-0.638-2.502-0.429-4.976-0.429-4.976C4.672 10.087 10.515 14.529 10.515 14.529z" fill="#000000" data-fill-palette-color="accent"></path><g fill="#ffffff" data-fill-palette-color="accent"><path d="M9.762 19.412c-0.289 0-0.577-0.127-0.771-0.372-3.507-4.4-7.398-2.536-7.563-2.455-0.487 0.24-1.077 0.046-1.321-0.437-0.244-0.483-0.055-1.072 0.428-1.32 0.054-0.027 5.463-2.707 9.997 2.984 0.339 0.425 0.269 1.045-0.156 1.384C10.193 19.342 9.977 19.412 9.762 19.412z" fill="#000000" data-fill-palette-color="accent"></path></g></g></svg></g></svg></g></svg></g><defs></defs></svg><rect width="395.51999999999987" height="80.21985626415757" fill="none" stroke="none" visibility="hidden"></rect></g></svg></g></svg>